<svg xmlns="http://www.w3.org/2000/svg" version="1.1" xmlns:xlink="http://www.w3.org/1999/xlink" xmlns:svgjs="http://svgjs.dev/svgjs" width="1440" height="560" preserveAspectRatio="none" viewBox="0 0 1440 560">
    <g mask="url(&quot;#SvgjsMask1067&quot;)" fill="none">
        <rect width="1440" height="560" x="0" y="0" fill="#2450c1"></rect>
        <path d="M513.4372997475415 164.17382613197378L399.7013877476085 243.81256907948304 479.34013069511775 357.548481079416 593.0760426950508 277.90973813190675z" fill="#4a90e2" class="triangle-float1"></path>
        <path d="M983.2033228047153 417.39608661588545L973.0358722204496 320.65925618688385 876.2990417914481 330.8267067711495 886.4664923757136 427.56353720015113z" fill="#4a90e2" class="triangle-float2"></path>
        <path d="M1010.7661430519745 49.01583376149147L870.2446247770001 133.44968021888522 954.6784712343939 273.9711984938595 1095.1999895093682 189.5373520364658z" fill="#4a90e2" class="triangle-float1"></path>
        <path d="M1215.6568355456445 252.5801531018904L1362.6900611392173 306.09587066609834 1416.2057787034253 159.0626450725256 1269.1725531098525 105.54692750831765z" fill="#4a90e2" class="triangle-float2"></path>
        <path d="M1228.6626265802656 85.62342324969174L1119.1451848466086 184.2333707078297 1217.7551323047464 293.7508124414868 1327.2725740384035 195.14086498334888z" fill="#4a90e2" class="triangle-float3"></path>
        <path d="M1109.6839976348133 345.15168358596753L1182.6957036297902 269.5458487666045 1107.089868810427 196.5341427716277 1034.0781628154502 272.1399775909908z" fill="#4a90e2" class="triangle-float1"></path>
        <path d="M181.7063906845326 291.443218745245L253.39418871732988 196.31029759245152 158.26126756453638 124.62249955965424 86.57346953173911 219.75542071244774z" fill="#4a90e2)" class="triangle-float3"></path>
        <path d="M126.14864314656865 445.7496481301314L58.336579006973366 377.93758399053615-9.475485132621884 445.7496481301314 58.33657900697338 513.5617122697266z" fill="#4a90e2" class="triangle-float1"></path>
        <path d="M1228.240222485428 590.3566577998604L1379.230398225333 532.3969596896338 1321.2707001151064 381.406783949729 1170.2805243752014 439.3664820599555z" fill="#4a90e2" class="triangle-float1"></path>
        <path d="M875.6613646310717 83.61289249152802L934.8806109883478 147.1177593163141 998.3854778131339 87.89851295903802 939.1662314558578 24.393646134251924z" fill="#4a90e2" class="triangle-float3"></path>
        <path d="M275.41558507939607 480.9455515298781L187.8740716746359 372.8407855475648 79.76930569232252 460.38229895232496 167.3108190970827 568.4870649346383z" fill="#4a90e2" class="triangle-float2"></path>
        <path d="M1196.1920290962355 409.169048428941L1083.1391007582756 450.31694924058843 1124.2870015699232 563.3698775785483 1237.339929907883 522.2219767669009z" fill="#4a90e2" class="triangle-float1"></path>
        <path d="M816.4448014491946 217.64654697539737L785.8495740872496 94.93579241491383 663.138819526766 125.53101977685893 693.7340468887111 248.24177433734246z" fill="#4a90e2" class="triangle-float3"></path>
    </g>
    <defs>
        <mask id="SvgjsMask1067">
            <rect width="1440" height="560" fill="#ffffff"></rect>
        </mask>
        <style>
            @keyframes float1 {
                    0%{transform: translate(0, 0)}
                    50%{transform: translate(-10px, 0)}
                    100%{transform: translate(0, 0)}
                }

                .triangle-float1 {
                    animation: float1 5s infinite;
                }

                @keyframes float2 {
                    0%{transform: translate(0, 0)}
                    50%{transform: translate(-5px, -5px)}
                    100%{transform: translate(0, 0)}
                }

                .triangle-float2 {
                    animation: float2 4s infinite;
                }

                @keyframes float3 {
                    0%{transform: translate(0, 0)}
                    50%{transform: translate(0, -10px)}
                    100%{transform: translate(0, 0)}
                }

                .triangle-float3 {
                    animation: float3 6s infinite;
                }
        </style>
    </defs>
</svg>